

<svg viewBox="0 0 720 714" fill="none" xmlns="http://www.w3.org/2000/svg">
<circle cx="360" cy="357" r="334" fill="#F9A505"/>
<g clip-path="url(#clip0_579_629)">
<path d="M551.607 424.459C583.342 471.223 625.806 507.766 663.497 549.326C694.375 635.603 555.014 475.576 546.086 458.3C497.929 393.671 536.742 403.784 592.232 403.688C633.498 403.823 675.602 394.413 716.298 402.542C743.806 424.843 569.406 422.833 551.601 424.459H551.607Z" fill="white"/>
<path d="M357.589 548.821C324.374 575.781 285.254 710.397 252.66 703.868C233.305 683.603 284.709 630.387 291.447 605.052C389.587 425.003 375.816 576.043 425.261 677.746C442.63 777.343 360.445 566.737 357.589 548.814V548.821Z" fill="white"/>
<path d="M493.209 201.754C547.854 185.413 596.786 156.565 648.491 133.227C677.075 121.834 675.474 157.806 650.259 160.994C593.551 184.907 535.909 228.593 472.457 224.285C466.981 179.531 501.887 123.504 508.369 74.8258C560.176 -55.7705 507.382 175.306 493.202 201.754H493.209Z" fill="white"/>
<path d="M179.556 402.843C123.445 382.092 62.7087 379.576 5.45042 364.099C-26.3298 317.232 90.4411 358.959 109.719 357.877C130.925 364.4 227.771 378.021 205.355 409.846C159.663 439.085 120.87 477.24 76.3507 507.9C-8.05714 549.902 162.917 411.881 179.55 402.843H179.556Z" fill="white"/>
<path d="M263.618 188.53C264.816 130.686 252.192 74.6082 246.038 17.4103C275.281 -59.7774 288.565 143.667 287.739 161.109C285.657 177.239 291.876 229.643 263.183 213.916C225.574 184.792 184.872 160.123 145.592 133.502C38.8639 44.4538 244.513 168.47 263.612 188.537L263.618 188.53Z" fill="white"/>
<path d="M459.116 673.887C458.873 663.697 469.716 660.368 477.03 656.15C520.666 637.645 552.132 596.942 595.396 580.498C626.67 595.227 459.962 724.818 459.116 673.887Z" fill="white"/>
<path d="M720 351.758C714.607 384.454 686.285 359.83 689.629 338.444C685.402 293.555 656.785 252.923 655.492 208.821C687.912 195.341 716.529 323.454 720 351.758Z" fill="white"/>
<path d="M110.494 154.535C89.743 181.528 68.6394 306.395 45.7874 301.569C28.7316 280.062 81.609 93.1706 110.494 154.535Z" fill="white"/>
<path d="M82.6017 550.575C92.7148 505.737 170.897 609.955 199.02 614.973C205.585 619.973 231.902 637.709 219.778 644.737C169.744 638.477 108.637 592.775 82.6017 550.575Z" fill="white"/>
<path d="M470.978 46.2204C421.546 33.6876 367.58 48.8 319.833 36.2479C302.578 -1.4146 557.518 8.66032 470.978 46.2204Z" fill="white"/>
<path d="M558.684 131.006C637.494 66.8184 650.47 107.963 568.989 151.95C501.958 192.921 540.11 121.354 549.429 88.0948C588.139 2.70757 570.616 104.078 558.684 131V131.006Z" fill="white"/>
<path d="M216.236 104.302C215.545 83.0637 186.871 49.2865 207.455 33.9117C232.933 36.408 229.046 81.2587 239.338 100.404C259.046 180.356 196.894 115.266 167.919 96.4158C106.882 36.5872 198.425 88.0692 216.23 104.308L216.236 104.302Z" fill="white"/>
<path d="M346.246 644.724C318.353 746.523 286.701 713.642 326.519 631.648C357.108 559.44 368.637 647.842 380.537 677.894C395.255 764.779 352.311 667.972 346.252 644.724H346.246Z" fill="white"/>
<path d="M86.483 421.636C-21.6288 425.854 0.108872 386.643 92.3818 398.868C169.937 405.768 86.4574 445.319 62.5742 465.226C-10.824 504.54 61.812 433.094 86.483 421.636Z" fill="white"/>
<path d="M638.423 464.093C732.713 527.781 681.142 541.063 617.409 476.709C564.026 427.307 652.078 445.87 680.54 442.586C766.095 454.28 666.719 468.196 638.417 464.099L638.423 464.093Z" fill="white"/>
<path d="M612.887 355.439C611.702 376.76 583.835 372.958 584.181 352.705C581.248 316.426 552.67 283.448 560.208 246.957C593.846 249.78 605.067 325.041 612.887 355.439Z" fill="white"/>
<path d="M198.707 215.484C179.255 250.234 181.138 302.44 149.589 327.256C128.146 311.036 174.125 156.801 198.707 215.484Z" fill="white"/>
<path d="M423.448 574.36C431.749 548.744 470.024 543.034 487.553 522.072C496.859 512.848 541.263 486.022 529.389 516.093C516.496 534.156 437.571 612.842 423.448 574.36Z" fill="white"/>
<path d="M267.833 555.26C236.104 550.888 181.305 514.717 167.49 485.152C167.9 470.967 185.173 468.458 193.538 478.079C201.019 491.86 306.056 550.376 267.833 555.266V555.26Z" fill="white"/>
<path d="M440.639 149.351C403.779 140.338 363.148 155.899 328.806 139.846C323.323 110.792 425.018 119.433 446.429 122.454C464.061 126.852 456.772 151.668 440.632 149.351H440.639Z" fill="white"/>
<path d="M666.789 345.844C666.975 366.608 641.388 365.206 639.589 345.933C637.917 307.003 608.731 273.181 609.659 235.416C636.188 223.069 663.216 323.543 666.789 345.844Z" fill="white"/>
<path d="M141.461 511.888C170.782 526.13 193.384 555.855 224.716 569.828C230.743 575.512 252.615 587.68 240.536 595.54C218.952 601.768 91.5427 527.109 141.461 511.888Z" fill="white"/>
<path d="M95.7827 292.269C95.4624 256.475 107.689 221.987 121.267 189.401C128.709 168.182 157.044 178.276 146.521 198.989C133.647 209.333 107.926 353.947 95.7827 292.269Z" fill="white"/>
<path d="M553.003 545.819C582.849 558.614 489.705 622.744 473.431 631.34C451.712 645 438.288 615.658 461.87 606.915C496.533 593.351 519.41 557.59 552.997 545.819H553.003Z" fill="white"/>
<path d="M416.429 64.5589C426.356 65.3462 438.468 66.1847 450.547 67.2984C473.072 69.6795 467.359 98.5601 445.609 93.8811C411.593 86.757 377.104 93.4586 343.229 92.3513C292.126 74.7298 401.743 62.8114 416.422 64.5589H416.429Z" fill="white"/>
<path d="M197.88 330.546C199.123 309.839 212.016 231.493 240.811 241.913C262.049 245.498 200.878 394.08 197.88 330.546Z" fill="white"/>
<path d="M491.716 455.055C510.847 452.93 489.91 480.268 483.243 485.619C470.139 499.79 391.796 556.777 411.107 503.189C437.251 488.026 463.017 460.54 491.716 455.055Z" fill="white"/>
<path d="M550.454 353.992C538.657 389.869 517.758 350.99 516.823 331.461C514.466 313.308 490.435 271.306 509.541 261.807C538.849 280.504 542.474 322.634 550.461 353.992H550.454Z" fill="white"/>
<path d="M386.775 177.796C402.582 180.568 419.791 175.153 432.306 185.093C441.516 195.77 430.705 209.653 417.94 207.33C402.8 206.133 284.338 207.867 340.187 183.058C355.437 175.351 371.929 179.422 386.775 177.79V177.796Z" fill="white"/>
<path d="M219.221 451.33C221.751 426.962 245.788 441.555 255.984 452.168C267.167 464.182 324.233 494.599 308.016 509.782C277.171 509.904 233.318 477.087 219.221 451.323V451.33Z" fill="white"/>
<path d="M457.957 420.017C456.593 443.898 378.808 488.429 403.594 442.375C419.305 440.57 451.104 393.069 457.957 420.017Z" fill="white"/>
<path d="M475.724 356.757C456.484 351.38 460.154 314.192 449.183 297.857C457.938 259.932 508.112 355.963 475.724 356.757Z" fill="white"/>
<path d="M378.289 236.793C398.444 232.152 422.078 256.322 392.584 260.911C376.156 257.595 359.606 259.029 343.043 260.079C313.671 247.7 365.351 234.309 378.289 236.793Z" fill="white"/>
<path d="M255.517 340.269C256.83 322.564 260.724 307.183 267.999 292.749C274.673 277.969 296.424 288.799 288.315 302.997C278.804 315.216 269.152 387.756 255.517 340.269Z" fill="white"/>
<path d="M288.206 409.993C304.839 421.335 320.166 434.476 337.337 445.332C351.049 484.473 240.395 421.803 288.206 409.993Z" fill="white"/>
</g>
<defs>
<clipPath id="clip0_579_629">
<rect width="720" height="713.438" fill="white"/>
</clipPath>
</defs>
</svg>
